<?xml version="1.0" encoding="UTF-8"?>
<svg width="24px" height="24px" viewBox="0 0 24 24" version="1.1" xmlns="http://www.w3.org/2000/svg">
    <g stroke="none" stroke-width="1" fill="none" fill-rule="evenodd">
        <path d="M12.5,2.5 L12.5,4.5 L12.5,6.5 L12.5,8.5 L12.5,10.5 L12.5,12.5 L12.5,14.5 L12.5,16.5 L12.5,18.5 L12.5,20.5 L12.5,22.5" stroke="#42A5F5" stroke-width="2" stroke-linecap="round"/>
        <path d="M8.5,6.5 L10.5,6.5 L12.5,6.5 L14.5,6.5 L16.5,6.5" stroke="#42A5F5" stroke-width="2" stroke-linecap="round"/>
        <path d="M6.5,10.5 L8.5,10.5 L10.5,10.5 L12.5,10.5 L14.5,10.5 L16.5,10.5 L18.5,10.5" stroke="#42A5F5" stroke-width="2" stroke-linecap="round"/>
        <path d="M4.5,14.5 L6.5,14.5 L8.5,14.5 L10.5,14.5 L12.5,14.5 L14.5,14.5 L16.5,14.5 L18.5,14.5 L20.5,14.5" stroke="#42A5F5" stroke-width="2" stroke-linecap="round"/>
    </g>
</svg> 